<svg width="512" height="512" viewBox="0 0 512 512" fill="none" xmlns="http://www.w3.org/2000/svg">
<path fill-rule="evenodd" clip-rule="evenodd" d="M98.1666 0.1C103.867 0 105.767 0.5 111.067 3.2C114.367 5 118.567 8.1 120.167 10C121.867 11.9 124.167 15.5 125.267 18C126.767 21.4 127.367 25.1 127.867 43H161.867L162.167 32.7C162.367 25.1 162.967 21.4 164.467 18C165.567 15.5 167.867 11.9 169.567 10C171.167 8.1 175.367 5 178.667 3.2C183.967 0.5 185.867 0 191.867 0C197.867 0 199.767 0.5 205.067 3.3C208.367 5 212.567 8.1 214.167 10C215.867 11.9 218.167 15.5 219.267 18C220.767 21.4 221.367 25.1 221.867 43H255.867L256.167 32.7C256.367 25.1 256.967 21.4 258.467 18C259.567 15.5 261.867 11.9 263.567 10C265.167 8.1 269.367 5 272.667 3.2C277.867 0.5 279.967 0 285.367 0C289.967 0 293.367 0.7 297.167 2.3C299.967 3.6 304.167 6.4 306.367 8.6C308.567 10.7 311.467 14.8 312.767 17.5C314.567 21.3 315.267 24.9 316.367 43H349.867L350.167 32.2C350.467 23 350.867 20.8 353.067 16.5C354.467 13.7 357.167 10.1 359.067 8.4C360.867 6.6 364.767 4 367.667 2.6C371.667 0.6 374.367 0 379.367 0C383.967 0 387.367 0.7 391.167 2.3C393.967 3.6 398.167 6.4 400.267 8.6C402.467 10.7 405.367 15 406.667 18C408.467 22.1 409.267 26 410.367 42.9L428.367 43.2C446.267 43.5 446.467 43.5 452.867 46.6C456.467 48.4 461.667 52 464.467 54.6C467.267 57.3 470.867 62.2 472.567 65.5C474.267 68.8 476.167 73.9 476.767 76.8C477.467 80.3 477.867 100.6 477.867 196.5H484.667C490.367 196.5 492.167 196.9 495.467 199.1C497.567 200.5 500.167 203.3 501.167 205.3C502.167 207.4 502.867 211.3 502.867 214.5C502.867 217.5 502.167 224.6 501.367 230.2C500.467 235.9 499.067 243.9 498.267 248C497.467 252.1 495.167 260.2 493.267 266C491.367 271.8 488.567 278.5 487.167 281C485.667 283.5 483.067 287.3 477.967 293.5L477.867 324H487.367C493.7 324 498.133 324.533 500.667 325.6C502.667 326.4 505.467 328.1 506.667 329.3C507.967 330.5 509.667 332.7 510.467 334.2C511.567 336.4 511.867 342 511.767 380.5L509.067 384.5C507.567 386.7 504.667 389.3 502.567 390.3C500.367 391.3 498.667 392.9 498.367 394.3C498.067 395.5 493.867 418.2 488.867 444.8C483.967 471.3 479.167 494.7 478.267 496.8C477.467 498.8 475.367 502 473.567 503.8C471.767 505.7 468.267 508.3 460.867 512H340.367L335.367 509.1C332.667 507.6 328.867 504.6 327.067 502.4C325.267 500.3 323.367 496.9 322.767 495C322.167 493.1 319.367 478.9 311.267 435.5L32.3666 434.5L26.8666 432.3C23.8666 431 19.2666 428.3 16.7666 426.3C14.1666 424.2 10.9666 421.1 9.5666 419.5C8.1666 417.8 5.5666 413.3 0.366599 402.5L0.066599 241.5C-0.133401 98.7 0.0665991 79.8 1.3666 74.5C2.2666 71.2 4.1666 66.5 5.5666 64C7.0666 61.5 10.2666 57.4 12.7666 54.9C15.2666 52.4 20.4666 48.8 31.3666 43.5L67.3666 42.9L67.9666 32.7C68.4666 24.9 69.1666 21.3 70.9666 17.5C72.2666 14.7 75.1666 10.7 77.3666 8.6C79.5666 6.4 83.5666 3.6 86.3666 2.4C89.8666 0.8 93.3666 0.1 98.0666 0.1H98.1666ZM86.8666 24.5C85.1666 28.1 84.9666 30.9 85.0666 51C85.0666 65.7 85.4666 74.7 86.2666 77C86.9666 79 88.8666 81.4 90.9666 82.7C93.1666 84.2 95.9666 85.1 98.4666 85.1C100.967 85.1 103.567 84.3 105.167 83C106.767 81.9 108.667 79.6 109.467 78C110.667 75.6 110.967 70.4 110.967 51.5C110.967 32.8 110.667 27.3 109.467 24.5C108.667 22.6 106.967 20.3 105.667 19.5C104.467 18.7 101.667 17.7 99.4666 17.5C96.7666 17.1 94.4666 17.5 92.1666 18.7C90.1666 19.8 88.0666 22.1 86.8666 24.5ZM180.867 24C179.167 27.2 178.967 29.8 178.967 50.8C178.967 68.1 179.267 74.8 180.367 77.3C181.067 79 182.667 81.4 183.967 82.5C185.367 83.7 187.967 84.6 190.867 84.8C194.167 85 196.367 84.5 198.667 83.1C200.467 81.9 202.667 79.4 203.467 77.5C204.667 74.7 204.967 69.2 204.967 50.7C204.967 29.8 204.767 27.2 203.067 24C202.067 22.1 199.667 19.7 197.867 18.7C195.967 17.8 193.367 17 191.967 17C190.567 17 187.967 17.8 186.067 18.7C184.267 19.7 181.867 22.1 180.867 24ZM274.767 24C273.167 27 272.967 30.6 272.967 51.3C272.967 70.4 273.267 75.6 274.467 78C275.267 79.6 277.167 81.9 278.667 83C280.367 84.3 282.967 85.1 285.467 85.1C287.967 85.1 290.767 84.2 292.967 82.7C295.067 81.4 296.967 79 297.667 77C298.467 74.7 298.867 65.7 298.867 51C298.967 30.9 298.767 28.1 297.067 24.5C295.767 21.9 293.867 19.9 291.567 18.8C289.567 17.8 286.967 17 285.667 17C284.467 17 281.867 17.8 279.967 18.8C277.967 19.8 275.767 22 274.767 24ZM369.167 23.2C366.967 26.4 366.967 27.1 367.167 52.3L367.467 78.2C374.167 84.3 375.767 85 378.967 85C381.167 85 384.267 84.3 385.967 83.5C387.567 82.7 389.767 80.5 390.667 78.8C392.167 76 392.567 72.2 392.767 55.5C392.967 44.5 392.767 33 392.367 30C391.867 25.8 390.967 23.7 388.567 21.2C386.367 18.8 384.367 17.8 381.467 17.4C379.067 17.2 376.167 17.6 374.367 18.4C372.767 19.2 370.367 21.4 369.167 23.2ZM28.5666 64.1C26.3666 65.4 23.3666 68.3 21.9666 70.5C20.4666 72.7 18.6666 76.3 18.0666 78.5C17.4666 80.9 16.9666 91.6 16.9666 105.3V128H460.967C460.467 80.2 460.367 78.2 458.367 74.5C457.167 72.3 454.667 69 452.867 67.1C450.967 65.3 448.067 63 446.467 62.1C444.167 60.9 439.767 60.4 426.967 60.2L410.467 59.8C409.367 74.3 408.367 80.5 407.567 83C406.767 85.5 404.267 89.5 402.167 92C399.967 94.5 396.067 97.6 393.367 99C389.167 101.1 387.167 101.5 379.467 101.5C372.167 101.5 369.667 101.1 366.467 99.3C364.267 98.2 360.767 95.5 358.667 93.3C356.567 91.2 353.867 87.5 352.667 85C350.867 81.4 350.367 78.4 350.167 70.3L349.967 60H316.467C315.467 77.4 314.767 80.7 312.767 85C311.267 88.3 308.167 92.2 305.267 94.8C302.567 97.2 298.267 99.8 295.467 100.7C292.067 101.8 288.167 102.1 283.467 101.8C278.367 101.5 275.267 100.7 271.967 98.8C269.467 97.4 265.667 94.3 263.467 91.8C261.167 89.2 258.667 85 257.667 81.9C256.567 78.5 255.967 73.5 255.967 68.3V60H221.967C221.367 77.5 220.867 80.6 218.867 84.9C217.367 88.4 214.667 91.9 211.467 94.7C208.667 97.1 204.467 99.7 201.967 100.6C199.467 101.4 194.967 102 191.967 102C188.967 102 184.467 101.4 181.967 100.6C179.467 99.7 175.167 97.1 172.467 94.7C169.267 91.9 166.567 88.4 165.067 84.9C163.067 80.6 162.567 77.5 162.267 69.8L161.967 60H127.967C127.967 73.5 127.367 78.5 126.267 81.9C125.267 85 122.767 89.2 120.467 91.8C118.267 94.3 114.467 97.4 111.967 98.8C108.667 100.7 105.567 101.5 100.467 101.8C95.7666 102.1 91.8666 101.8 88.4666 100.7C85.6666 99.8 81.3666 97.2 78.6666 94.8C75.7666 92.2 72.6666 88.3 71.1666 85C69.1666 80.7 68.4666 77.4 68.0666 69.7L67.4666 60C44.1666 60.1 36.3666 60.5 34.9666 60.9C33.5666 61.3 30.6666 62.7 28.5666 64.1ZM17.4666 399.5C20.7666 405.7 23.2666 409 25.0666 410.8C26.9666 412.6 30.0666 414.8 31.9666 415.8C35.2666 417.4 45.0666 417.5 171.767 417.8L307.967 418C307.267 414.5 306.367 409.2 305.367 404C304.467 398.8 303.367 393.7 302.867 392.8C302.367 391.8 301.467 391 300.967 391C300.367 391 298.567 390 296.767 388.8C295.067 387.5 292.767 384.7 291.767 382.5C290.267 379.1 289.967 375.6 289.967 358.5C289.967 341.2 290.267 338 291.867 334.5C292.867 332.3 294.567 329.7 295.567 328.8C296.567 327.9 299.167 326.4 301.167 325.6C304.467 324.2 311.367 324 348.967 324H392.967C392.967 303.5 392.667 297.2 392.267 296.8C391.767 296.4 389.467 297.5 386.967 299.2C384.467 301 379.967 303.3 376.967 304.3C373.967 305.4 367.867 306.5 363.467 306.7C358.167 307 353.167 306.7 348.667 305.6C344.967 304.7 339.367 302.7 336.167 301.1C333.067 299.6 327.767 295.8 324.467 292.8C320.267 289 317.167 284.9 314.267 279.4C312.067 275.1 308.967 267.7 307.567 263C306.267 258.3 304.367 251.1 303.567 247C302.767 242.9 301.367 234.9 300.467 229.3C299.667 223.6 298.967 216.6 298.967 213.8C299.067 210.4 299.767 207.2 301.067 205C302.167 203.1 304.667 200.4 306.667 199C309.767 196.9 311.367 196.5 317.367 196.7C321.267 196.8 330.267 197.8 337.467 199C344.567 200.2 354.467 202.3 359.467 203.5C364.367 204.8 371.567 207.2 375.467 208.8C379.267 210.3 384.467 213 386.967 214.7C389.467 216.3 393.667 220.2 396.467 223.3L401.467 228.9C405.467 223.2 408.167 220.1 410.067 218.5C411.967 216.8 415.467 214.2 417.967 212.8C420.467 211.3 427.167 208.5 432.967 206.6C438.767 204.7 447.367 202.3 452.267 201.3L460.967 199.5V145H16.9666L17.4666 399.5ZM317.867 229.5C318.867 236.6 320.767 246.3 321.967 251C323.167 255.7 325.367 262.6 326.767 266.5C328.467 270.9 331.067 275.2 333.967 278.3C336.667 281.3 340.967 284.4 344.867 286.4C350.767 289.2 352.367 289.5 360.367 289.5C368.167 289.5 370.267 289.1 374.967 286.8C377.967 285.4 381.867 282.6 383.667 280.6C385.467 278.6 387.867 275.1 389.067 272.8C390.267 270.4 391.567 266.3 391.967 263.5C392.367 260.8 392.367 255.9 391.867 252.8C391.367 249.6 389.767 244.8 388.467 242C387.067 239.3 384.267 235.2 382.167 232.9C380.167 230.7 375.767 227.5 372.467 226C369.167 224.4 361.267 221.8 354.967 220.1C348.567 218.5 338.267 216.5 331.967 215.6C325.567 214.7 319.367 213.8 318.067 213.6C316.267 213.4 315.667 213.7 315.767 214.9C315.867 215.8 316.767 222.3 317.867 229.5ZM441.967 221.5C437.267 222.9 431.167 225.1 428.467 226.4C425.667 227.8 421.667 230.8 419.467 233.2C417.367 235.5 414.367 240 412.967 243C410.767 247.8 410.467 249.9 410.467 258.5C410.467 266.9 410.767 269.2 412.667 272.8C413.967 275.1 416.667 278.7 418.667 280.8C420.767 282.9 424.667 285.7 427.467 287C431.667 289.1 433.867 289.5 441.467 289.5C449.367 289.5 451.167 289.1 456.867 286.5C460.567 284.7 464.967 281.6 467.367 279C469.667 276.5 472.267 273.1 473.167 271.5C474.067 269.8 475.867 264.9 477.267 260.5C478.767 256.1 480.567 249.1 481.467 245C482.267 240.9 483.667 233.1 484.467 227.8C485.267 222.4 485.967 217.1 485.967 216C485.967 214.3 485.267 214 481.667 214.1C479.367 214.1 471.367 215.2 463.967 216.5C456.467 217.8 446.567 220.1 441.967 221.5ZM409.767 310.1L409.967 324H460.967C460.967 308.5 460.567 304 460.167 304C459.767 304.1 456.767 304.7 453.467 305.5C450.167 306.3 444.467 307 440.967 307C437.167 307 431.667 306.2 427.967 305.1C424.367 304 418.767 301.5 415.567 299.6L409.667 296.1L409.767 310.1ZM306.867 375.1H494.867V341.1H306.867V375.1ZM329.867 442.6C338.167 486.8 339.067 490.7 341.367 492.8L343.867 495.1H457.867C462.867 490.7 463.667 487.3 471.967 443.1C476.867 416.9 480.867 395 480.867 394.3C480.867 393.3 464.267 393.1 400.867 393.1C356.867 393.1 320.867 393.4 320.967 393.8C320.967 394.2 324.967 416.2 329.867 442.6ZM88.8666 162.1C111.767 162 115.067 162.2 121.167 164.1C126.467 165.7 129.067 167.2 133.467 171.3C136.767 174.4 140.167 178.9 144.367 187.6V247.6L141.767 253.1C140.367 256.1 137.267 260.6 134.767 263C132.367 265.5 127.967 268.6 119.367 272.6H59.3666L53.8666 269.9C50.7666 268.4 46.1666 264.9 43.1666 261.7C39.0666 257.3 37.4666 254.6 35.8666 249.3C33.9666 243.1 33.8666 240.4 34.3666 188.6L37.1666 182.6C38.7666 179.3 41.6666 174.8 43.6666 172.7C45.7666 170.6 49.1666 168 51.3666 166.8C53.5666 165.7 57.1666 164.2 59.3666 163.5C62.1666 162.6 71.2666 162.2 88.8666 162.1ZM55.7666 184.7C54.7666 185.7 53.3666 188.3 52.4666 190.3C51.1666 193.4 50.8666 198.5 50.9666 217.8C50.9666 238.8 51.1666 242 52.7666 245.6C53.8666 247.8 55.7666 250.6 57.0666 251.8C58.3666 253 60.6666 254.4 62.1666 255C63.8666 255.7 74.4666 256.1 89.3666 256.1C104.367 256.1 114.967 255.7 116.667 255C118.167 254.4 120.667 252.7 122.267 251.3C123.867 249.8 125.767 247.1 126.567 245.3C127.567 242.9 127.867 236.1 127.867 217.6C127.867 202.6 127.467 192 126.867 190.3C126.267 188.8 124.767 186.5 123.567 185.2C122.367 183.9 119.567 182 117.367 181C113.867 179.3 110.667 179.1 89.3666 179.1C68.2666 179.1 64.9666 179.3 61.3666 181C59.1666 182 56.6666 183.6 55.7666 184.7ZM216.867 162.1C239.767 162 243.067 162.2 249.167 164.1C254.467 165.7 257.067 167.2 261.467 171.3C264.767 174.4 268.167 178.9 272.367 187.6V247.6L269.767 253.1C268.367 256.1 265.267 260.6 262.767 263C260.367 265.5 255.967 268.6 247.367 272.6H187.367L181.867 269.9C178.767 268.4 174.167 264.9 171.167 261.7C167.067 257.3 165.467 254.6 163.867 249.3C161.967 243.1 161.867 240.4 162.367 188.6L165.167 182.6C166.767 179.3 169.667 174.8 171.667 172.7C173.767 170.6 177.167 168 179.367 166.8C181.567 165.7 185.167 164.2 187.367 163.5C190.167 162.6 199.267 162.2 216.867 162.1ZM183.767 184.7C182.767 185.7 181.367 188.3 180.467 190.3C179.167 193.4 178.867 198.5 178.967 217.8C178.967 238.8 179.167 242 180.767 245.6C181.867 247.8 183.767 250.6 185.067 251.8C186.367 253 188.667 254.4 190.167 255C191.867 255.7 202.467 256.1 217.367 256.1C232.367 256.1 242.967 255.7 244.667 255C246.167 254.4 248.667 252.7 250.267 251.3C251.867 249.8 253.767 247.1 254.567 245.3C255.567 242.9 255.867 236.1 255.867 217.6C255.867 202.6 255.467 192 254.867 190.3C254.267 188.8 252.767 186.5 251.567 185.2C250.367 183.9 247.567 182 245.367 181C241.867 179.3 238.667 179.1 217.367 179.1C196.267 179.1 192.967 179.3 189.367 181C187.167 182 184.667 183.6 183.767 184.7ZM88.8666 290.1C111.767 290 115.067 290.2 121.167 292.1C126.467 293.7 129.067 295.2 133.467 299.3C136.767 302.4 140.167 306.9 144.367 315.6V375.6L141.767 381.1C140.367 384.1 137.267 388.6 134.767 391C132.367 393.5 127.967 396.6 119.367 400.6H59.3666L53.8666 397.9C50.7666 396.4 46.1666 392.9 43.1666 389.7C39.0666 385.3 37.4666 382.6 35.8666 377.3C33.9666 371.1 33.8666 368.4 34.3666 316.6L37.1666 310.6C38.7666 307.3 41.6666 302.8 43.6666 300.7C45.7666 298.6 49.1666 296 51.3666 294.8C53.5666 293.7 57.1666 292.2 59.3666 291.5C62.1666 290.6 71.2666 290.2 88.8666 290.1ZM55.7666 312.7C54.7666 313.7 53.3666 316.3 52.4666 318.3C51.1666 321.4 50.8666 326.5 50.9666 345.8C50.9666 366.8 51.1666 370 52.7666 373.6C53.8666 375.8 55.7666 378.6 57.0666 379.8C58.3666 381 60.6666 382.4 62.1666 383C63.8666 383.7 74.4666 384.1 89.3666 384.1C104.367 384.1 114.967 383.7 116.667 383C118.167 382.4 120.667 380.7 122.267 379.3C123.867 377.8 125.767 375.1 126.567 373.3C127.567 370.9 127.867 364.1 127.867 345.6C127.867 330.6 127.467 320 126.867 318.3C126.267 316.8 124.767 314.5 123.567 313.2C122.367 311.9 119.567 310 117.367 309C113.867 307.3 110.667 307.1 89.3666 307.1C68.2666 307.1 64.9666 307.3 61.3666 309C59.1666 310 56.6666 311.6 55.7666 312.7ZM216.867 290.1C239.767 290 243.067 290.2 249.167 292.1C254.467 293.7 257.067 295.2 261.467 299.3C264.767 302.4 268.167 306.9 272.367 315.6V375.6L269.767 381.1C268.367 384.1 265.267 388.6 262.767 391C260.367 393.5 255.967 396.6 247.367 400.6H187.367L181.867 397.9C178.767 396.4 174.167 392.9 171.167 389.7C167.067 385.3 165.467 382.6 163.867 377.3C161.967 371.1 161.867 368.4 162.367 316.6L165.167 310.6C166.767 307.3 169.667 302.8 171.667 300.7C173.767 298.6 177.167 296 179.367 294.8C181.567 293.7 185.167 292.2 187.367 291.5C190.167 290.6 199.267 290.2 216.867 290.1ZM183.767 312.7C182.767 313.7 181.367 316.3 180.467 318.3C179.167 321.4 178.867 326.5 178.967 345.8C178.967 366.8 179.167 370 180.767 373.6C181.867 375.8 183.767 378.6 185.067 379.8C186.367 381 188.667 382.4 190.167 383C191.867 383.7 202.467 384.1 217.367 384.1C232.367 384.1 242.967 383.7 244.667 383C246.167 382.4 248.667 380.7 250.267 379.3C251.867 377.8 253.767 375.1 254.567 373.3C255.567 370.9 255.867 364.1 255.867 345.6C255.867 330.6 255.467 320 254.867 318.3C254.267 316.8 252.767 314.5 251.567 313.2C250.367 311.9 247.567 310 245.367 309C241.867 307.3 238.667 307.1 217.367 307.1C196.267 307.1 192.967 307.3 189.367 309C187.167 310 184.667 311.6 183.767 312.7ZM356.167 436.1C357.967 436.1 360.167 436.7 360.967 437.4C361.867 438 363.067 439.5 363.667 440.6C364.267 441.7 365.467 446.7 367.867 461.1H381.867C395.467 461.1 395.967 461.1 398.367 463.6C399.967 465.1 400.867 467.2 400.867 469.1C400.867 471 399.867 473.1 395.067 478.1H377.467C364.667 478.1 359.167 477.7 357.167 476.7C355.667 476 354.067 474.5 353.567 473.5C353.167 472.4 351.667 465.7 350.367 458.6C348.967 451.4 347.867 444.5 347.967 443.3C347.967 442 349.067 439.9 350.367 438.5C352.033 436.9 353.967 436.1 356.167 436.1Z" fill="black"/>
</svg>
