<svg width="30" height="30" viewBox="0 0 30 30" fill="none" xmlns="http://www.w3.org/2000/svg">
    <g clip-path="url(#clip0_78_1386)">
        <path
            d="M19.5958 21.7263C19.8305 21.9835 19.9609 22.3218 19.9478 22.6737C19.9478 23.0256 19.8175 23.3504 19.5698 23.6075C19.3351 23.8511 19.0091 24 18.6701 24C18.3312 24 18.0052 23.8782 17.7575 23.6346L10.3781 15.9744C10.2608 15.8526 10.1695 15.7038 10.1043 15.5414C10.0391 15.3789 10 15.203 10 15.0271C10 14.8511 10.0391 14.6752 10.1043 14.4992C10.1695 14.3368 10.2608 14.188 10.3781 14.0662L17.7575 6.40602C17.8748 6.28421 18.0183 6.17594 18.1747 6.10827C18.3442 6.0406 18.5137 6 18.6832 6C18.8527 6 19.0352 6.02707 19.1917 6.09474C19.3481 6.16241 19.4915 6.27068 19.6219 6.39248C19.7392 6.51429 19.8305 6.67669 19.8957 6.8391C19.9739 7.0015 20 7.17744 20 7.36692C20 7.54286 19.9609 7.7188 19.8957 7.8812C19.8305 8.04361 19.7262 8.19248 19.5958 8.32782L13.1421 15.0271L14.3677 16.2857L19.5958 21.7263Z"
            fill="white" />
    </g>
    <defs>
        <clipPath id="clip0_78_1386">
            <rect width="10" height="18" fill="white" transform="translate(10 6)" />
        </clipPath>
    </defs>
</svg>
